#!OML:ASF E:\Mandelcareful walks\Project 1\Capture day 1\Session 1\Subject1.ASF
:FULLY-SPECIFIED
:DEGREES
1011
root -7.04072 14.6244 0.575901 -161.08 -16.5305 177.466
lowerback 29.1256 1.60773 -1.65187
upperback 6.881 0.288685 0.910273
thorax -8.34491 -0.398495 1.95544
lowerneck -25.2192 -4.47321 -5.32601
upperneck 6.80031 -4.73802 0.753843
head 6.16403 -2.53685 0.487767
rclavicle 4.09496e-014 1.55052e-014
rhumerus -25.5249 -0.0306372 -75.2773
rradius 71.8453
rwrist -9.21413
rhand -16.2044 -16.7114
rfingers 7.12502
rthumb 10.0029 -46.4537
lclavicle 4.09496e-014 1.55052e-014
lhumerus -18.714 -26.1294 80.7984
lradius 71.1352
lwrist 25.9593
lhand -30.3423 -14.721
lfingers 7.12502
lthumb -3.64802 15.2275
rfemur -76.2002 -25.4104 38.1224
rtibia 62.1152
rfoot -8.44268 -7.83616
rtoes -34.2931
lfemur -46.6098 14.9332 -30.8843
ltibia 72.2956
lfoot -38.9401 8.08848
ltoes -4.58885
1012
root -7.14243 14.6983 0.566784 -160.968 -16.3916 177.397
lowerback 29.1337 1.52781 -1.84049
upperback 6.87975 0.139841 1.05052
thorax -8.34528 -0.466924 2.27485
lowerneck -25.8082 -3.8581 -4.86872
upperneck 7.49098 -3.8798 -0.266617
head 6.42669 -2.20518 0.172453
rclavicle 2.26615e-014 -7.95139e-015
rhumerus -25.4419 0.0554055 -75.1632
rradius 71.4469
rwrist -9.14811
rhand -15.8537 -16.3684
rfingers 7.12502
rthumb 10.3412 -46.0942
lclavicle 2.26615e-014 -7.95139e-015
lhumerus -18.5569 -26.5771 80.6909
lradius 71.1235
lwrist 26.4125
lhand -30.3952 -14.5923
lfingers 7.12502
lthumb -3.69909 15.3553
rfemur -76.0424 -24.026 37.7387
rtibia 61.7038
rfoot -10.6178 -3.64095
rtoes -15.0724
lfemur -46.069 15.1943 -31.5425
ltibia 71.5994
lfoot -38.8625 8.47934
ltoes -6.31135
1013
root -7.24232 14.7292 0.546215 -160.8 -16.2934 177.047
lowerback 29.0833 1.36352 -1.91696
upperback 6.89199 -0.104781 0.949499
thorax -8.29515 -0.582573 2.29086
lowerneck -26.3934 -3.08874 -4.10942
upperneck 8.28669 -2.87156 -1.4754
head 6.73179 -1.81581 -0.233118
rclavicle 2.50469e-014 -6.36111e-015
rhumerus -25.6575 0.475328 -75.1038
rradius 71.5017
rwrist -9.73918
rhand -16.0384 -16.6061
rfingers 7.12502
rthumb 10.1631 -46.3406
lclavicle 2.50469e-014 -6.36111e-015
lhumerus -18.2515 -27.4357 80.2664
lradius 71.1348
lwrist 26.6249
lhand -30.0909 -14.2262
lfingers 7.12502
lthumb -3.40527 15.7263
rfemur -76.2168 -23.0736 38.4811
rtibia 61.2513
rfoot -10.5637 -1.06085
rtoes -14.8874
lfemur -45.7493 15.3308 -32.3522
ltibia 71.2278
lfoot -38.798 8.57689
ltoes -6.967
1014
root -7.33814 14.717 0.518388 -160.626 -16.2699 176.477
lowerback 29.1481 1.29733 -1.98194
upperback 6.89231 -0.222334 0.84349
thorax -8.32104 -0.637264 2.25185
lowerneck -26.9712 -2.33445 -3.27332
upperneck 9.15198 -1.85494 -3.01553
head 7.0812 -1.46678 -0.761606
rclavicle -3.06128e-014 2.62396e-014
rhumerus -26.2105 0.781987 -74.7351
rradius 71.9379
rwrist -10.738
rhand -16.7859 -17.1596
rfingers 7.12502
rthumb 9.44196 -46.928
lclavicle -3.06128e-014 2.62396e-014
lhumerus -17.7887 -28.8298 80.0071
lradius 71.1234
lwrist 26.5959
lhand -29.5873 -14.3009
lfingers 7.12502
lthumb -2.91888 15.6589
rfemur -75.9315 -22.0164 38.5939
rtibia 60.6824
rfoot -10.3366 1.00074
rtoes -17.31
lfemur -45.4974 15.3926 -33.3074
ltibia 71.0155
lfoot -38.731 8.40335
ltoes -5.91803
1015
root -7.42865 14.6956 0.480505 -160.529 -16.3256 176.317
lowerback 29.1956 1.02733 -1.48162
upperback 6.85654 -0.43727 0.63847
thorax -8.37674 -0.743207 1.80894
lowerneck -27.6893 -1.37613 -2.47187
upperneck 10.3075 -0.539164 -4.29934
head 7.58509 -0.961814 -1.16269
rclavicle 8.34896e-015 1.94809e-014
rhumerus -26.5169 0.113479 -74.8533
rradius 71.911
rwrist -10.7918
rhand -16.6306 -17.1447
rfingers 7.12502
rthumb 9.59181 -46.9063
lclavicle 8.34896e-015 1.94809e-014
lhumerus -17.4299 -30.0872 79.3891
lradius 71.2296
lwrist 26.4353
lhand -28.8174 -14.519
lfingers 7.12502
lthumb -2.17536 15.4496
rfemur -75.4518 -20.5906 38.8051
rtibia 60.1764
rfoot -9.84752 2.01698
rtoes -20.1122
lfemur -45.3235 15.7947 -33.9188
ltibia 70.9746
lfoot -38.716 8.28216
ltoes -5.00739
1016
root -7.51936 14.6855 0.432617 -160.469 -16.5076 176.321
lowerback 29.1442 0.675777 -1.25528
upperback 6.80063 -0.787294 0.881856
thorax -8.39864 -0.906083 2.07367
lowerneck -28.4317 -0.182234 -2.20463
upperneck 11.5824 1.33213 -5.72262
head 8.18503 -0.26467 -1.44572
rclavicle 6.75868e-015 -4.77083e-015
rhumerus -26.5631 0.961002 -74.3358
rradius 71.9769
rwrist -11.3278
rhand -16.6334 -17.3804
rfingers 7.12502
rthumb 9.58908 -47.1422
lclavicle 6.75868e-015 -4.77083e-015
lhumerus -17.3961 -30.312 79.3778
lradius 71.3773
lwrist 26.073
lhand -27.8955 -14.9413
lfingers 7.12502
lthumb -1.28497 15.0346
rfemur -74.7656 -18.9039 38.3937
rtibia 59.8215
rfoot -8.59936 3.1797
rtoes -12.0985
lfemur -45.0817 16.3506 -34.3733
ltibia 70.9519
lfoot -38.7861 8.30397
ltoes -5.29309
1017
root -7.60628 14.6694 0.38354 -160.372 -16.8313 176.095
lowerback 29.246 0.409867 -0.508728
upperback 6.65905 -0.900155 0.65514
thorax -8.6143 -0.956876 1.43117
lowerneck -28.6709 0.776165 -1.03295
upperneck 12.5689 2.57908 -7.2979
head 8.64389 0.167772 -2.00285
rclavicle 5.24792e-014 -2.78299e-014
rhumerus -27.2357 0.255861 -74.1917
rradius 72.1228
rwrist -11.7065
rhand -16.8606 -17.56
rfingers 7.12502
rthumb 9.36988 -47.3318
lclavicle 5.24792e-014 -2.78299e-014
lhumerus -17.1207 -31.9414 78.8909
lradius 71.5408
lwrist 25.723
lhand -27.0828 -15.9248
lfingers 7.12502
lthumb -0.500106 14.0544
rfemur -74.0828 -17.2676 37.3295
rtibia 59.7465
rfoot -8.46342 1.49412
rtoes -8.29272
lfemur -44.808 16.7111 -34.937
ltibia 70.9928
lfoot -38.8682 7.96123
ltoes -4.37751
1018
root -7.68644 14.6444 0.33283 -160.25 -17.2834 175.924
lowerback 29.4289 -0.086604 -0.0345514
upperback 6.46509 -1.34673 0.83481
thorax -8.91445 -1.15854 1.52586
lowerneck -28.7616 1.76516 -0.831548
upperneck 13.2181 4.143 -8.55719
head 8.99361 0.722644 -2.24264
rclavicle 1.55052e-014 -7.95139e-016
rhumerus -27.2604 0.546464 -73.8029
rradius 71.8879
rwrist -12.3094
rhand -17.1119 -18.064
rfingers 7.12502
rthumb 9.12739 -47.8465
lclavicle 1.55052e-014 -7.95139e-016
lhumerus -17.276 -32.2881 79.0161
lradius 71.7411
lwrist 24.9072
lhand -26.7043 -16.8512
lfingers 7.12502
lthumb -0.13447 13.1285
rfemur -73.4981 -15.664 36.2175
rtibia 59.9316
rfoot -8.41952 -0.73145
rtoes -4.02068
lfemur -44.6612 17.0239 -35.3573
ltibia 71.1405
lfoot -38.726 7.38285
ltoes -2.50609
1019
root -7.77392 14.6239 0.270438 -160.133 -17.6926 175.844
lowerback 29.4151 -0.468973 0.604466
upperback 6.35371 -1.60588 1.00909
thorax -9.03476 -1.28204 1.44715
lowerneck -28.6087 2.4894 -0.712455
upperneck 13.4413 5.29068 -9.57833
head 9.14869 1.12001 -2.4419
rclavicle 2.82274e-014 -3.89618e-014
rhumerus -27.1149 0.46841 -73.3802
rradius 71.5872
rwrist -13.2311
rhand -17.9886 -19.1032
rfingers 7.12502
rthumb 8.28137 -48.9209
lclavicle 2.82274e-014 -3.89618e-014
lhumerus -17.1631 -32.9487 79.0909
lradius 71.9753
lwrist 24.2026
lhand -26.4574 -17.0906
lfingers 7.12502
lthumb 0.104008 12.8891
rfemur -73.0604 -14.2666 35.2788
rtibia 60.36
rfoot -8.45012 -2.94345
rtoes 0.631779
lfemur -44.4747 17.3715 -35.6702
ltibia 71.3154
lfoot -38.7084 6.50307
ltoes 0.261541
1020
root -7.86765 14.6067 0.197749 -159.992 -17.86 175.494
lowerback 29.3083 -0.70741 0.803043
upperback 6.30169 -1.82209 1.21522
thorax -9.03504 -1.38192 1.63933
lowerneck -27.9497 2.99089 -1.21822
upperneck 13.0087 6.16843 -10.0668
head 8.94759 1.46277 -2.38813
rclavicle -2.78299e-014 3.97569e-016
rhumerus -27.032 0.843977 -72.731
rradius 71.6263
rwrist -14.4817
rhand -19.386 -20.4869
rfingers 7.12502
rthumb 6.93252 -50.3534
lclavicle -2.78299e-014 3.97569e-016
lhumerus -17.0551 -33.2495 79.4099
lradius 72.2084
lwrist 23.6998
lhand -25.7005 -17.1713
lfingers 7.12502
lthumb 0.834983 12.8069
rfemur -72.6314 -12.9693 33.7327
rtibia 60.9366
rfoot -8.69969 -4.2259
rtoes 6.14218
lfemur -44.1068 17.7987 -36.3077
ltibia 71.4085
lfoot -38.844 5.60616
ltoes 3.2603
1021
root -7.96296 14.5796 0.123321 -159.761 -18.0095 174.779
lowerback 29.1593 -0.738894 1.32234
upperback 6.45826 -1.76251 0.869599
thorax -8.80748 -1.37365 0.92026
lowerneck -28.1211 3.06114 -0.872042
upperneck 12.9536 6.1902 -10.3587
head 8.98118 1.45274 -2.54202
rclavicle -4.77083e-015 -1.19271e-014
rhumerus -27.1786 -0.541285 -72.3914
rradius 71.6015
rwrist -15.0165
rhand -19.4807 -20.9019
rfingers 7.12502
rthumb 6.8411 -50.7714
lclavicle -4.77083e-015 -1.19271e-014
lhumerus -16.0216 -34.8225 78.8005
lradius 72.4389
lwrist 23.3844
lhand -24.6269 -17.3577
lfingers 7.12502
lthumb 1.87188 12.6138
rfemur -72.2734 -11.8374 31.6125
rtibia 61.6141
rfoot -9.24122 -4.97431
rtoes 10.8786
lfemur -43.633 18.0961 -37.2886
ltibia 71.4136
lfoot -38.9063 4.99868
ltoes 5.01384
1022
root -8.06086 14.5499 0.0439034 -159.528 -18.3268 174.2
lowerback 28.9477 -0.933346 2.13291
upperback 6.56765 -1.82107 0.479608
thorax -8.60932 -1.41887 0.0266394
lowerneck -28.3271 3.22138 0.0772906
upperneck 13.0309 6.22361 -11.1827
head 9.11186 1.40801 -2.98057
rclavicle 3.73715e-014 -4.6118e-014
rhumerus -27.2921 -2.24335 -72.1044
rradius 71.0484
rwrist -14.5814
rhand -17.6884 -19.5067
rfingers 7.12502
rthumb 8.57101 -49.3127
lclavicle 3.73715e-014 -4.6118e-014
lhumerus -15.2119 -36.1863 78.1159
lradius 72.7258
lwrist 23.0179
lhand -23.6474 -17.5998
lfingers 7.12502
lthumb 2.8179 12.3613
rfemur -71.9894 -11.081 29.7849
rtibia 62.3011
rfoot -9.99956 -5.47556
rtoes 13.2671
lfemur -43.1378 18.2495 -38.0452
ltibia 71.3885
lfoot -38.916 4.52699
ltoes 5.59003
1023
root -8.16039 14.5319 -0.0416399 -159.294 -18.5706 173.814
lowerback 28.6876 -1.38624 2.40579
upperback 6.65007 -2.32412 0.703712
thorax -8.39497 -1.66365 0.286071
lowerneck -28.4513 3.53408 -0.573679
upperneck 12.7562 6.87272 -11.3681
head 9.0691 1.64008 -2.83586
rclavicle -7.15625e-015 -5.56597e-015
rhumerus -26.5732 -1.3484 -71.5493
rradius 70.7119
rwrist -15.3524
rhand -17.5135 -19.8365
rfingers 7.12502
rthumb 8.73981 -49.6356
lclavicle -7.15625e-015 -5.56597e-015
lhumerus -15.1926 -35.3946 78.4413
lradius 72.9609
lwrist 22.344
lhand -23.6932 -18.0137
lfingers 7.12502
lthumb 2.77369 11.948
rfemur -71.7206 -10.4835 28.2094
rtibia 62.924
rfoot -10.8753 -5.88915
rtoes 13.2324
lfemur -42.7687 18.6362 -38.7116
ltibia 71.4216
lfoot -38.7633 4.91331
ltoes 3.0351
1024
root -8.26992 14.5258 -0.128186 -158.899 -18.7627 173.111
lowerback 28.367 -1.71879 2.87806
upperback 6.69902 -2.63254 0.597297
thorax -8.20813 -1.81412 -0.0113339
lowerneck -28.6599 3.58003 -0.625674
upperneck 12.6724 7.00255 -11.7704
head 9.10417 1.6307 -2.94988
rclavicle -1.27222e-014 -1.03368e-014
rhumerus -26.2656 -1.2488 -71.0764
rradius 70.5065
rwrist -15.9387
rhand -17.4212 -19.9859
rfingers 7.12502
rthumb 8.82895 -49.7812
lclavicle -1.27222e-014 -1.03368e-014
lhumerus -15.0373 -35.319 78.5433
lradius 73.2245
lwrist 21.8733
lhand -24.49 -18.3249
lfingers 7.12502
lthumb 2.00412 11.6455
rfemur -71.488 -9.90319 26.1317
rtibia 63.5792
rfoot -11.8496 -6.43464
rtoes 11.5421
lfemur -42.4314 18.8278 -39.7154
ltibia 71.4605
lfoot -38.3985 5.61235
ltoes -0.477999
